<?xml version="1.0" encoding="utf-8"?>
<!-- Generator: Adobe Illustrator 19.2.1, SVG Export Plug-In . SVG Version: 6.00 Build 0)  -->
<svg version="1.1" xmlns="http://www.w3.org/2000/svg" xmlns:xlink="http://www.w3.org/1999/xlink" x="0px" y="0px"
	 viewBox="0 0 512 512" style="enable-background:new 0 0 512 512;" xml:space="preserve">
<style type="text/css">
	.st0{display:none;}
	.st1{fill:#75A897;}
	.st2{fill:#D5872A;}
	.st3{fill:#5082A9;}
	.st4{fill:#E09C6F;}
	.st5{fill:#E4C856;}
	.st6{fill:#87B7DD;}
	.st7{fill:#B9BDC2;}
	.st8{fill:#57646E;}
	.st9{fill:#CA6A46;}
	.st10{fill:#1F3049;}
	.st11{fill:#298063;}
	.st12{fill:#C93A3A;}
	.st13{fill:#DA8B80;}
	.st14{fill:#C9402E;}
	.st15{fill:#E29E6F;}
	.st16{fill:#A32929;}
	.st17{fill:#F5F5F5;}
	.st18{fill:#C9553E;}
	.st19{fill:#E09E9A;}
	.st20{fill:#FFFFFF;}
	.st21{fill:#E6A585;}
	.st22{fill:#4E3333;}
	.st23{fill:#2B5F87;}
	.st24{opacity:0.31;fill:#FFFFFF;}
	.st25{fill:#E6CA56;}
	.st26{fill:#4D917B;}
	.st27{fill:#B8B8B8;}
	.st28{fill:#8998A0;}
	.st29{fill:#394755;}
	.st30{fill:#F2D1B4;}
	.st31{fill:#ECE4C7;}
	.st32{fill:#F1CB58;}
	.st33{fill:#E1E1E1;}
</style>
<g id="GUIDELINES" class="st0">
</g>
<g id="Layer_9">
</g>
<g id="ICON">
	<ellipse class="st12" cx="256.4" cy="255.8" rx="256" ry="256"/>
</g>
<g id="Layer_8">
	<g>
		<g>
			<g>
				<g>
					<rect x="273.6" y="207.3" class="st8" width="27.7" height="156.7"/>
					<g>
						<rect x="176.8" y="207.3" class="st20" width="97.7" height="156.7"/>
					</g>
					<g>
						<g>
							<rect x="183" y="217.2" class="st10" width="18.9" height="29.4"/>
							<rect x="186.4" y="220.6" class="st6" width="12.1" height="22.6"/>
							<rect x="184.3" y="230.6" class="st10" width="16.3" height="2.7"/>
						</g>
						<g>
							<rect x="216.1" y="217.2" class="st10" width="18.9" height="29.4"/>
							<rect x="219.5" y="220.6" class="st5" width="12.1" height="22.6"/>
							<rect x="217.4" y="230.6" class="st10" width="16.3" height="2.7"/>
						</g>
						<g>
							<rect x="249.2" y="217.2" class="st10" width="18.9" height="29.4"/>
							<rect x="252.6" y="220.6" class="st3" width="12.1" height="22.6"/>
							<rect x="250.4" y="230.6" class="st10" width="16.3" height="2.7"/>
						</g>
					</g>
					<g>
						<g>
							<rect x="183" y="263.4" class="st10" width="18.9" height="29.4"/>
							<rect x="186.4" y="266.8" class="st6" width="12.1" height="22.6"/>
							<rect x="184.3" y="276.8" class="st10" width="16.3" height="2.7"/>
						</g>
						<g>
							<rect x="216.1" y="263.4" class="st10" width="18.9" height="29.4"/>
							<rect x="219.5" y="266.8" class="st3" width="12.1" height="22.6"/>
							<rect x="217.4" y="276.8" class="st10" width="16.3" height="2.7"/>
						</g>
						<g>
							<rect x="249.2" y="263.4" class="st10" width="18.9" height="29.4"/>
							<rect x="252.6" y="266.8" class="st2" width="12.1" height="22.6"/>
							<rect x="250.4" y="276.8" class="st10" width="16.3" height="2.7"/>
						</g>
					</g>
					<g>
						<g>
							<g>
								<rect x="183" y="309.6" class="st10" width="18.9" height="29.4"/>
								<rect x="186.4" y="313" class="st2" width="12.1" height="22.6"/>
								<rect x="184.3" y="322.9" class="st10" width="16.3" height="2.7"/>
							</g>
							<g>
								<rect x="249.2" y="309.6" class="st10" width="18.9" height="29.4"/>
								<rect x="252.6" y="313" class="st3" width="12.1" height="22.6"/>
								<rect x="250.4" y="322.9" class="st10" width="16.3" height="2.7"/>
							</g>
						</g>
					</g>
					<rect x="210" y="321.1" class="st12" width="32" height="42.9"/>
					<rect x="169" y="202.1" class="st10" width="136.9" height="8.7"/>
					<g>
						<rect x="211.9" y="324.1" class="st2" width="12.7" height="38.4"/>
						<rect x="227.5" y="324.1" class="st2" width="12.7" height="38.4"/>
					</g>
				</g>
			</g>
			<g>
				<g>
					<rect x="404.9" y="166.5" class="st8" width="30.1" height="197.5"/>
					<g>
						<rect x="298.2" y="166.5" class="st7" width="106.1" height="197.5"/>
					</g>
					<g>
						<g>
							<rect x="305.1" y="177.3" class="st10" width="20.5" height="32"/>
							<rect x="308.8" y="181" class="st6" width="13.1" height="24.6"/>
							<rect x="306.5" y="191.8" class="st10" width="17.8" height="3"/>
						</g>
						<g>
							<rect x="341" y="177.3" class="st10" width="20.5" height="32"/>
							<rect x="344.7" y="181" class="st5" width="13.1" height="24.6"/>
							<rect x="342.4" y="191.8" class="st10" width="17.8" height="3"/>
						</g>
						<g>
							<rect x="377" y="177.3" class="st10" width="20.5" height="32"/>
							<rect x="380.7" y="181" class="st3" width="13.1" height="24.6"/>
							<rect x="378.4" y="191.8" class="st10" width="17.8" height="3"/>
						</g>
					</g>
					<g>
						<g>
							<rect x="305.1" y="224.9" class="st10" width="20.5" height="32"/>
							<rect x="308.8" y="228.6" class="st6" width="13.1" height="24.6"/>
							<rect x="306.5" y="239.4" class="st10" width="17.8" height="3"/>
						</g>
						<g>
							<rect x="341" y="224.9" class="st10" width="20.5" height="32"/>
							<rect x="344.7" y="228.6" class="st3" width="13.1" height="24.6"/>
							<rect x="342.4" y="239.4" class="st10" width="17.8" height="3"/>
						</g>
						<g>
							<rect x="377" y="224.9" class="st10" width="20.5" height="32"/>
							<rect x="380.7" y="228.6" class="st2" width="13.1" height="24.6"/>
							<rect x="378.4" y="239.4" class="st10" width="17.8" height="3"/>
						</g>
					</g>
					<rect x="291.3" y="160.8" class="st10" width="148.7" height="9.5"/>
					<g>
						<rect x="333.9" y="319" class="st10" width="34.8" height="45"/>
						<g>
							<rect x="335.9" y="322.3" class="st3" width="13.8" height="41.7"/>
							<rect x="352.8" y="322.3" class="st3" width="13.8" height="41.7"/>
						</g>
					</g>
					<g>
						<g>
							<rect x="305.1" y="272.5" class="st10" width="20.5" height="32"/>
							<rect x="308.8" y="276.2" class="st6" width="13.1" height="24.6"/>
							<rect x="306.5" y="287" class="st10" width="17.8" height="3"/>
						</g>
						<g>
							<rect x="341" y="272.5" class="st10" width="20.5" height="32"/>
							<rect x="344.7" y="276.2" class="st5" width="13.1" height="24.6"/>
							<rect x="342.4" y="287" class="st10" width="17.8" height="3"/>
						</g>
						<g>
							<rect x="377" y="272.5" class="st10" width="20.5" height="32"/>
							<rect x="380.7" y="276.2" class="st5" width="13.1" height="24.6"/>
							<rect x="378.4" y="287" class="st10" width="17.8" height="3"/>
						</g>
					</g>
					<g>
						<g>
							<rect x="305.1" y="320.1" class="st10" width="20.5" height="32"/>
							<rect x="308.8" y="323.8" class="st6" width="13.1" height="24.6"/>
							<rect x="306.5" y="334.6" class="st10" width="17.8" height="3"/>
						</g>
						<g>
							<rect x="377" y="320.1" class="st10" width="20.5" height="32"/>
							<rect x="380.7" y="323.8" class="st2" width="13.1" height="24.6"/>
							<rect x="378.4" y="334.6" class="st10" width="17.8" height="3"/>
						</g>
					</g>
				</g>
			</g>
		</g>
		<g>
			<g>
				<path class="st10" d="M120.7,243.9l-57,57c-2.3,2.3-2.3,5.9,0,8.2L78,323.4c2.3,2.3,5.9,2.3,8.2,0l58.7-58.7
					C135.4,259.7,126.8,253.3,120.7,243.9z"/>
			</g>
			<path class="st10" d="M176.4,147c-36.9-0.1-66.9,29.8-67,66.7c-0.1,36.9,29.8,66.9,66.7,67c36.9,0.1,66.9-29.8,67-66.7
				C243.2,177.1,213.3,147.1,176.4,147z M176.1,270.1c-31.1-0.1-56.2-25.3-56.1-56.4c0.1-31.1,25.3-56.2,56.4-56.1
				c31.1,0.1,56.2,25.3,56.1,56.4C232.4,245.1,207.1,270.2,176.1,270.1z"/>
			<path class="st24" d="M176.3,157.6c-31-0.1-56.3,25-56.4,56.1c-0.1,31,25,56.3,56.1,56.4c31.1,0.1,56.3-25,56.4-56.1
				C232.5,183,207.4,157.7,176.3,157.6z"/>
			<circle class="st20" cx="178.1" cy="194.6" r="20.8"/>
		</g>
	</g>
</g>
</svg>
